<?xml version="1.0" standalone="no"?>
<!DOCTYPE svg PUBLIC "-//W3C//DTD SVG 20010904//EN"
 "http://www.w3.org/TR/2001/REC-SVG-20010904/DTD/svg10.dtd">
<svg version="1.0" xmlns="http://www.w3.org/2000/svg"
 width="395.000000pt" height="395.000000pt" viewBox="0 0 395.000000 395.000000"
 preserveAspectRatio="xMidYMid meet">
<metadata>
Created by potrace 1.14, written by Peter Selinger 2001-2017
</metadata>
<g transform="translate(0.000000,395.000000) scale(0.100000,-0.100000)"
fill="#000000" stroke="none">
<path d="M0 2361 l0 -1590 28 8 c15 4 50 9 77 10 30 1 60 8 75 19 14 10 46 24
73 32 26 7 51 18 55 25 7 12 97 62 97 54 0 -2 16 6 36 17 33 20 37 27 43 76 8
60 4 74 -36 138 -43 68 -51 107 -34 179 21 91 16 169 -13 208 -15 20 -24 45
-23 65 2 72 32 267 51 341 19 68 20 88 11 165 -5 49 -18 113 -28 143 -11 30
-22 80 -26 112 -4 31 -11 57 -16 57 -4 0 -11 11 -14 25 -3 13 -22 50 -41 82
-19 32 -35 65 -35 73 0 9 -16 49 -36 90 -25 53 -38 97 -44 151 -5 42 -20 105
-34 140 -36 87 -34 133 4 169 55 51 82 54 237 25 76 -15 158 -35 182 -46 73
-32 109 -26 157 26 27 30 49 45 66 45 25 0 102 -28 198 -73 103 -49 150 -49
323 -5 84 21 170 47 192 58 55 25 121 46 175 55 56 9 93 28 117 59 21 26 78
46 134 46 43 0 69 25 69 66 0 23 13 43 58 87 134 133 138 151 40 155 -79 3
-99 18 -77 58 13 24 16 25 94 22 44 -1 85 0 91 4 6 4 11 21 12 38 1 40 9 50
37 50 44 0 55 -10 55 -51 0 -24 5 -39 13 -40 31 -2 126 2 165 7 33 5 54 18
100 61 95 90 197 119 256 72 39 -31 48 -61 31 -103 -8 -19 -11 -37 -7 -40 5
-3 39 0 76 6 57 10 72 9 102 -5 35 -17 44 -43 22 -65 -7 -7 -35 -12 -64 -12
-61 0 -84 -7 -84 -25 0 -19 76 -84 107 -91 54 -11 81 -26 86 -45 7 -25 -32
-95 -60 -110 -20 -11 -20 -14 -7 -34 8 -12 34 -30 58 -39 37 -14 46 -24 60
-61 16 -41 16 -45 0 -72 -10 -15 -32 -44 -50 -63 -18 -19 -36 -47 -39 -62 -6
-25 -4 -28 46 -42 29 -9 63 -16 76 -16 26 0 103 -38 103 -51 0 -5 -16 -34 -36
-64 -47 -70 -60 -134 -37 -182 9 -19 22 -37 29 -40 7 -2 31 -28 52 -56 22 -29
67 -81 101 -116 61 -63 94 -117 96 -156 3 -60 20 -133 38 -160 11 -16 30 -43
41 -60 11 -16 24 -52 27 -80 4 -27 26 -102 49 -165 22 -63 46 -132 52 -153 6
-23 32 -61 63 -93 30 -32 58 -73 66 -97 7 -23 24 -57 36 -76 13 -19 23 -44 23
-55 0 -12 7 -31 15 -42 13 -17 14 137 15 1294 l0 1312 -1975 0 -1975 0 0
-1589z m1025 1412 c31 -34 33 -40 21 -58 -7 -11 -22 -21 -33 -23 -25 -4 -83
44 -83 68 0 62 45 68 95 13z m347 19 c6 -6 10 -49 9 -109 -2 -123 -10 -133
-111 -133 -46 0 -71 -5 -79 -14 -8 -9 -11 -43 -9 -93 l3 -78 63 -3 c67 -3 92
7 92 37 0 33 25 54 55 47 26 -7 27 -10 21 -46 -9 -56 -25 -87 -50 -94 -40 -12
-171 -17 -201 -9 -20 6 -35 20 -44 41 -8 18 -19 32 -24 32 -4 0 -28 -13 -52
-30 -24 -16 -56 -30 -71 -30 l-27 0 4 127 4 127 -32 9 c-41 12 -51 37 -23 59
25 20 71 23 101 8 16 -9 19 -22 19 -96 0 -97 10 -124 45 -124 34 0 45 27 45
107 0 40 5 74 12 81 7 7 42 12 88 12 85 0 100 8 100 56 0 40 -10 44 -119 44
-90 0 -111 8 -111 42 0 35 54 49 173 45 60 -2 112 -8 119 -15z m391 1 c3 -10
5 -116 4 -235 -2 -203 -3 -218 -23 -245 -16 -21 -34 -30 -69 -36 -64 -11 -77
-5 -73 35 3 29 8 34 41 42 27 7 39 16 43 33 4 13 4 111 2 218 -3 130 -1 196 6
199 28 11 65 5 69 -11z m183 -227 c39 -115 42 -146 14 -171 -29 -26 -42 -10
-74 95 -15 47 -32 95 -38 107 -17 35 4 75 38 71 22 -3 29 -14 60 -102z m-346
79 c16 -20 -43 -199 -77 -233 -23 -23 -25 -23 -44 -6 -24 22 -24 44 1 87 11
19 27 58 36 88 9 30 21 60 26 67 14 16 43 15 58 -3z"/>
<path d="M2403 3643 c-32 -12 2 -73 41 -73 21 0 106 48 106 60 0 4 -7 11 -16
14 -18 7 -113 7 -131 -1z"/>
<path d="M2672 3639 c-28 -11 -20 -29 13 -29 40 0 57 10 44 26 -13 16 -24 17
-57 3z"/>
<path d="M2880 3543 c0 -38 10 -73 21 -73 10 0 12 60 3 84 -10 25 -24 18 -24
-11z"/>
<path d="M2763 3527 c-30 -43 -36 -64 -24 -71 25 -16 71 43 71 90 0 25 -24 15
-47 -19z"/>
<path d="M2208 3521 c-43 -51 -35 -82 11 -42 15 14 21 28 19 47 l-3 28 -27
-33z"/>
<path d="M2330 3526 c0 -27 15 -42 25 -26 8 13 -3 50 -16 50 -5 0 -9 -11 -9
-24z"/>
<path d="M2092 3387 c-26 -27 -28 -37 -7 -37 17 0 55 35 55 50 0 18 -26 11
-48 -13z"/>
<path d="M2657 3392 c-10 -10 -17 -24 -17 -30 0 -16 33 -15 48 0 16 16 15 48
-1 48 -8 0 -21 -8 -30 -18z"/>
<path d="M2985 3390 c-11 -5 -34 -9 -51 -9 -17 -1 -36 -7 -41 -13 -12 -15 -25
-113 -16 -121 13 -14 33 8 33 37 0 51 13 61 70 59 55 -2 74 14 50 42 -14 17
-17 17 -45 5z"/>
<path d="M2353 3380 c-23 -9 -30 -25 -15 -34 5 -3 30 -2 58 2 35 5 50 12 52
25 3 14 -4 17 -35 16 -21 0 -48 -4 -60 -9z"/>
<path d="M2521 3376 c-15 -18 2 -31 25 -18 13 7 13 10 1 20 -11 10 -17 9 -26
-2z"/>
<path d="M2195 3371 c-3 -5 -1 -12 4 -15 12 -8 41 3 41 15 0 12 -37 12 -45 0z"/>
<path d="M2757 3373 c-14 -13 -6 -24 15 -21 27 4 36 28 11 28 -11 0 -23 -3
-26 -7z"/>
<path d="M2300 3259 c0 -5 5 -7 10 -4 6 3 10 8 10 11 0 2 -4 4 -10 4 -5 0 -10
-5 -10 -11z"/>
<path d="M2253 2209 c-42 -21 -78 -74 -75 -113 2 -29 62 -82 127 -110 94 -42
146 -35 204 26 25 26 31 42 31 77 0 37 -5 49 -35 77 -38 36 -115 64 -174 64
-20 0 -55 -9 -78 -21z"/>
<path d="M1409 2087 c-85 -46 -135 -101 -160 -174 -23 -70 -15 -96 45 -142
129 -99 201 -83 301 69 66 102 87 148 76 168 -26 48 -130 123 -168 121 -10 0
-52 -19 -94 -42z"/>
<path d="M1845 1718 c-69 -24 -115 -53 -115 -73 0 -7 -5 -15 -10 -17 -21 -7
-23 -78 -5 -132 15 -45 17 -64 8 -126 -8 -62 -7 -81 8 -119 17 -45 18 -46 65
-47 27 -1 58 4 69 10 29 18 107 36 156 36 46 0 149 33 190 61 15 10 32 31 38
47 11 25 9 35 -9 68 -12 21 -30 48 -40 59 -12 13 -21 44 -26 94 -11 121 -63
161 -204 161 -39 -1 -89 -9 -125 -22z"/>
<path d="M2900 1253 c-21 -9 -317 -307 -365 -368 -93 -117 -195 -202 -227
-190 -15 6 -48 91 -48 122 0 25 -19 43 -44 43 -12 1 -38 7 -60 15 -30 11 -50
11 -98 2 -59 -11 -61 -10 -83 15 -13 15 -25 25 -28 22 -2 -3 -14 20 -26 50
-13 29 -32 63 -44 74 -26 24 -109 62 -134 62 -40 0 -94 -23 -133 -55 -50 -42
-67 -43 -116 -10 -20 14 -44 25 -53 26 -9 0 -29 2 -46 5 -35 4 -76 -9 -127
-43 l-37 -25 -33 20 c-87 53 -197 51 -258 -4 -35 -31 -60 -87 -60 -130 0 -11
-8 -31 -17 -44 -40 -57 -44 -89 -21 -168 l21 -73 -29 -32 c-66 -72 -86 -142
-65 -227 37 -142 121 -250 239 -306 l73 -34 164 0 165 0 65 33 c35 17 65 38
65 45 0 6 3 12 8 12 15 0 29 56 27 105 -6 122 -88 208 -245 255 -123 37 -115
30 -81 69 32 36 40 61 19 61 -6 0 -8 3 -5 6 3 4 2 15 -3 24 -6 12 -27 20 -62
25 -63 9 -88 20 -88 40 0 16 8 18 90 15 55 -2 90 -19 90 -45 0 -7 17 -31 38
-53 41 -44 143 -88 177 -76 36 13 55 37 55 68 0 43 -10 54 -61 69 -62 18 -64
43 -5 52 54 8 87 -8 111 -54 22 -43 125 -131 154 -132 42 -2 55 2 69 19 25 32
14 69 -33 113 -53 50 -48 59 35 59 62 0 100 -19 100 -51 0 -10 3 -19 8 -19 8
0 38 -71 48 -115 3 -16 12 -39 19 -50 6 -11 24 -51 39 -90 29 -73 50 -120 96
-220 16 -33 31 -70 34 -81 4 -12 15 -29 26 -39 11 -10 20 -24 20 -32 0 -9 17
-13 65 -13 65 0 65 0 59 25 -4 14 -40 103 -81 198 -41 95 -86 198 -99 229 -13
31 -37 86 -54 122 -41 90 -45 110 -25 130 18 17 34 20 51 8 17 -11 84 -169
104 -244 10 -38 49 -125 89 -198 39 -71 71 -132 71 -135 0 -3 14 -35 32 -70
l31 -65 59 0 59 0 -6 45 c-6 50 -5 50 38 31 79 -34 191 -49 245 -32 42 14 36
72 -10 97 -12 6 -47 18 -77 25 -69 16 -219 92 -286 146 -89 71 -140 166 -119
223 8 20 56 45 86 45 49 0 141 -31 260 -88 232 -112 265 -120 294 -77 22 34
-2 64 -86 108 -41 21 -88 46 -105 55 -58 30 -58 40 4 105 51 55 160 188 201
247 13 19 34 45 45 57 38 42 68 108 62 134 -4 13 -34 48 -68 78 -49 43 -68 54
-102 57 -23 2 -49 1 -57 -3z m54 -172 c14 -22 -312 -391 -345 -391 -10 0 -21
5 -24 10 -4 6 51 74 122 153 209 232 232 253 247 228z m-1534 -202 c0 -12 -7
-19 -18 -19 -25 0 -31 7 -25 29 6 25 43 16 43 -10z m-309 0 c17 -17 19 -23 8
-30 -38 -24 -94 5 -69 36 17 21 36 19 61 -6z m-141 -444 c28 -34 81 -55 176
-70 185 -29 294 -90 294 -163 0 -67 -64 -96 -202 -90 -79 2 -102 7 -152 33
-99 50 -176 158 -176 246 0 25 3 49 7 52 11 12 40 8 53 -8z"/>
<path d="M2 350 c0 -127 1 -133 14 -102 13 30 17 32 31 20 14 -11 16 -11 8 1
-6 11 -3 13 17 8 17 -5 28 -2 31 7 7 17 50 26 72 14 15 -9 237 16 258 29 16
10 5 33 -23 48 -16 9 -30 20 -30 26 0 12 -52 8 -62 -6 -4 -5 -15 -2 -27 9 -17
15 -33 18 -101 14 -45 -3 -83 -1 -86 4 -3 4 -22 8 -43 8 -31 0 -39 4 -48 28
-9 21 -11 0 -11 -108z"/>
<path d="M1 14 c0 -11 3 -14 6 -6 3 7 2 16 -1 19 -3 4 -6 -2 -5 -13z"/>
</g>
</svg>
